<svg width="15" height="15" viewBox="0 0 15 15" xmlns="http://www.w3.org/2000/svg"><title>Page 1</title><g fill="none" fill-rule="evenodd"><path fill="#FFF100" d="M7.407 0l-.314.007-.312.021-.308.035L6.17.11l-.3.061-.294.074-.29.085-.284.098-.279.11-.272.121-.267.133-.26.143-.253.154-.246.164-.238.174-.231.184-.223.193-.214.202-.206.21-.197.22-.188.228-.178.235-.169.243-.158.25-.148.257-.137.264-.126.27-.115.277-.103.282-.091.287-.08.293-.055.246-.02.01-.033.015-.032.017-.03.017-.03.018-.03.019-.028.019-.027.02-.027.02-.025.021-.025.022-.023.023-.023.023-.021.024-.02.025-.02.025-.018.026-.017.026-.016.027-.015.028-.014.029-.013.029-.011.03-.01.03-.01.03-.007.03-.007.033-.006.032-.004.032-.003.033L0 6.335v.06l.001.02.002.02.002.02.002.02.002.02.003.02.004.02.004.021.004.02.004.02.005.02.005.021.005.02.006.02.006.02.006.02.006.02.007.02.007.02.007.02.007.02.007.019.008.02.007.018.008.02.008.018.008.019.007.016-.016 1.027.442.48.01.048.017.074.017.073.019.074.019.073.02.072.02.073.021.072.023.071.022.072.024.07.024.072.025.07.026.07.027.07.027.07.028.068.028.069.03.068.03.068.03.067.032.067.032.067.033.066.033.066.034.066.035.065.036.065.036.064.037.064.037.064.009.014-.005.01-.01.02-.01.02-.01.02-.009.02-.008.02-.009.021-.008.02-.008.021-.008.02-.007.021-.007.02-.006.022-.006.02-.006.021-.005.02-.005.022-.005.02-.004.022-.004.02-.003.022-.003.02-.003.022-.002.02-.002.022-.001.021-.001.021v.064l.001.037.003.036.005.036.005.035.007.035.008.033.01.033.01.033.012.031.013.032.015.03.016.03.018.028.018.028.02.027.021.027.023.026.024.025.025.024.026.023.027.023.028.022.03.02.03.021.033.02.033.02.034.018.035.018.037.018.037.017.039.017.039.015.048.02.045.02.045.02.044.02.042.022.042.022.04.022.04.024.038.024.037.024.036.026.036.026.034.027.033.027.032.028.03.03.03.029.03.03.027.032.027.032.026.032.025.034.024.035.022.035.022.036.021.037.02.038.018.04.018.04.017.04.015.042.04.118.608-.048-.346 2.014 3.298-.837.083.097.096-.01.045-.003.046-.004.046-.003.046-.004.047-.003.046-.002.047-.003.047-.002.048-.001.047-.002.048-.001.048-.001.048-.001h.24l.047.002h.048l.048.002.048.002.047.002.047.003.048.002.046.003.047.003.046.004.047.004.045.004.096.009.088-.097 3.3.838-.356-2.013.615.035.041-.111.016-.04.017-.04.017-.039.019-.037.019-.037.02-.037.021-.035.022-.035.023-.034.023-.033.025-.032.025-.031.026-.031.027-.03.028-.03.028-.028.03-.027.03-.027.031-.026.032-.025.033-.024.033-.024.034-.022.035-.022.036-.021.037-.02.037-.02.039-.018.039-.018.04-.017.041-.016.043-.017.042-.017.04-.017.04-.018.04-.018.037-.018.037-.02.035-.02.034-.02.033-.02.032-.022.03-.022.03-.023.028-.024.027-.024.026-.026.024-.026.023-.027.022-.029.02-.029.019-.03.017-.031.016-.032.014-.033.012-.034.01-.035.01-.036.008-.036.006-.037.004-.038.003-.04.002-.039v-.062l-.001-.022-.001-.02-.001-.021-.002-.02-.002-.021-.002-.02-.003-.021-.003-.02-.003-.021-.004-.02-.004-.02-.004-.021-.005-.02-.006-.02-.005-.021-.007-.02-.006-.02-.007-.021-.008-.02-.008-.02-.008-.02-.01-.021-.009-.02-.01-.02-.01-.021-.01-.02-.005-.008.007-.012.038-.064.037-.064.037-.064.036-.065.035-.065.035-.066.034-.066.033-.066.032-.067.032-.067.031-.068.03-.068.03-.068.03-.069.028-.069.027-.07.027-.07.026-.07.026-.07.024-.07.024-.072.023-.072.023-.072.021-.072.021-.072.02-.073.02-.073.018-.074.018-.073.017-.074.01-.048.464-.504-.016-1.027.007-.016.008-.019.008-.019.008-.019.008-.019.007-.02.007-.019.008-.02.007-.019.006-.02.007-.02.006-.02.006-.02.006-.02.006-.02.005-.02.005-.02.005-.02.004-.02.004-.02.004-.021.004-.02.003-.02.002-.02.003-.021.001-.02.002-.02v-.02l.001-.02v-.04l-.003-.034-.003-.034-.004-.033-.006-.032-.007-.032-.008-.032-.01-.03-.01-.031-.012-.03-.013-.03-.014-.028-.015-.028-.016-.027-.018-.027-.019-.026-.02-.026-.02-.024-.022-.024-.023-.024-.024-.023-.025-.021-.027-.022-.027-.02-.028-.02-.029-.02-.03-.018-.03-.018-.032-.017-.033-.017-.033-.016-.025-.01-.054-.24-.079-.293-.091-.287-.103-.282-.115-.276-.126-.27-.138-.264-.147-.258-.159-.25-.168-.243-.178-.235-.188-.227-.197-.22-.206-.21-.215-.203-.222-.193-.231-.183-.239-.174-.246-.164-.253-.154-.26-.143-.266-.133-.273-.121-.278-.11L9.529.33l-.29-.085L8.945.17l-.3-.06-.303-.049-.308-.034-.312-.021z"/><path d="M7.408.117c3.33 0 6.12 2.386 6.753 5.538l.002-.004c.359.144.554.379.568.705.008.183-.063.401-.147.588l.015 1.01-.454.494a6.864 6.864 0 0 1-.876 2.179c.125.202.164.39.16.6-.006.39-.246.596-.7.768-.463.175-.792.51-.955.976l-.667-.038.35 1.985-3.208-.815-.095.104a8.06 8.06 0 0 0-1.524 0l-.09-.104-3.208.815.341-1.99-.658.052c-.16-.493-.513-.813-1.036-1.018-.413-.163-.609-.386-.62-.75a1.192 1.192 0 0 1 .17-.612 6.861 6.861 0 0 1-.864-2.175l-.433-.472.015-1.009C.163 6.757.092 6.54.1 6.356c.014-.322.204-.555.554-.7.633-3.152 3.423-5.54 6.754-5.54" fill="#ED1C24"/><path d="M7.221.778C3.863.87 1.152 3.64 1.152 7.023c0 .083.002.166.006.248l.142.075A6.119 6.119 0 0 1 6.885.936L6.875.93a6.701 6.701 0 0 0 .237-.007c.111-.009.137-.028.139-.073a.105.105 0 0 0-.03-.07m.465.143c3.225.155 5.806 2.836 5.806 6.101 0 .127-.004.252-.012.376.05-.023.097-.046.144-.07.005-.101.008-.203.008-.306 0-3.354-2.664-6.105-5.98-6.241-.116.025-.094.085.034.14" fill="#FFF100"/><path d="M6.918 1.634A5.42 5.42 0 0 0 2.03 7.71c.061.035.12.07.178.107a5.257 5.257 0 0 1 5.058-6.042.411.411 0 0 1-.019-.068c-.004-.01-.01-.027-.02-.033-.015-.006-.032-.008-.048-.011-.088-.013-.175-.02-.263-.029zm.588.14a5.257 5.257 0 0 1 5.054 6.134c.058-.04.118-.08.181-.118a5.42 5.42 0 0 0-4.876-6.157l.036.044c-.1.003-.2.003-.298.009-.022.002-.047.002-.067.01-.004.006-.007.014-.01.021a.39.39 0 0 1-.02.058zm-2.613 9.792l.174-.087-.062-.349-.212-.037v-.486l.224-.012.062-.398-.161-.174.199-.399.186.05.211-.31-.124-.188.336-.31.174.124.285-.2-.05-.198.448-.187.112.162.41-.087.012-.2h.535l.025.2.397.062.1-.15.422.175-.037.186.336.237.161-.112.336.336-.112.162.211.323.199-.025.162.41-.15.15.075.349.211.037v.46l-.211.087-.075.324.187.062-.042.135c-.493-.237-1.418-.509-2.452-.509-1.039 0-1.967.275-2.458.512l-.044-.125z" fill="#FFF100"/><path d="M5.21 11.55l-.095-.531-.193-.034v-.256l.206-.011.088-.563L5.073 10l.112-.224.173.046.311-.458-.111-.168.178-.165.163.116.433-.301-.045-.178.25-.104.1.146.59-.125.011-.176h.3l.023.183.575.09.086-.13.228.093-.033.165.477.337.147-.102.184.184-.1.144.302.464.18-.023.094.24-.139.139.107.501.19.034v.266l-.192.08-.113.49a4.52 4.52 0 0 0-.061-.023l.118-.514.184-.076v-.17l-.18-.03-.123-.58.134-.133-.06-.154-.17.022-.349-.534.095-.136-.108-.108-.14.097-.549-.386.031-.154-.13-.054-.08.12-.663-.103-.021-.174h-.183l-.01.164-.68.144-.096-.139-.15.063.042.167-.507.353-.157-.112-.1.092.106.158-.361.532-.167-.044-.069.137.134.145-.1.645-.198.011v.14l.185.033.104.586c-.08.03-.153.059-.221.088l-.002-.007.158-.08z" fill="#ED1C24"/><path d="M7.371 9.855a1.04 1.04 0 0 1 .974 1.398 7.343 7.343 0 0 0-.043-.007.997.997 0 0 0-.93-1.349.997.997 0 0 0-.928 1.356 7.282 7.282 0 0 0-.044.007 1.04 1.04 0 0 1 .97-1.405" fill="#ED1C24"/><path d="M7.371 10.284a.61.61 0 0 1 .527.916 5.938 5.938 0 0 0-.06-.004.557.557 0 0 0-.466-.858.557.557 0 0 0-.465.861l-.06.005a.61.61 0 0 1 .524-.92" fill="#ED1C24"/><path d="M7.371 10.391a.503.503 0 0 1 .404.8 7.033 7.033 0 0 0-.065-.003.447.447 0 0 0-.339-.743.45.45 0 0 0-.336.745 7.118 7.118 0 0 0-.065.004.503.503 0 0 1 .402-.803" fill="#ED1C24"/><path d="M7.371 9.14A1.757 1.757 0 0 1 9.05 11.4a5.778 5.778 0 0 0-.073-.019 1.682 1.682 0 0 0-1.605-2.168 1.682 1.682 0 0 0-1.601 2.18 6.043 6.043 0 0 0-.072.02A1.757 1.757 0 0 1 7.372 9.14" fill="#ED1C24"/><path d="M7.371 9.332a1.564 1.564 0 0 1 1.49 2.022 4.77 4.77 0 0 0-.041-.01 1.52 1.52 0 0 0-1.449-1.97 1.52 1.52 0 0 0-1.445 1.98 5.51 5.51 0 0 0-.042.01 1.564 1.564 0 0 1 1.487-2.032" fill="#ED1C24"/><path fill="#FFF100" d="M7.387 2.266l.49 1.389 1.471.037-1.168.896.419 1.413-1.212-.836-1.212.836.419-1.413-1.168-.896 1.47-.037zM3.803 12.915l-.362 1.867.086-.034.363-1.85-.087.017zm-.064 1.147l-.02.096 2.785-.713.001-.097-2.766.714zm2.764-.532v.097l-2.823.723.02-.096 2.803-.724zm-.002.19l-2.842.734-.02.096 2.862-.732v-.098zm-.001.191l-.001.097-2.9.743.02-.096 2.88-.744zm-1.444-.284a8.12 8.12 0 0 1 1.313-.36v.024l-1.313.336zm-.295-.018l-.982.254-.02.096 1.063-.272-.061-.078zm-.123-.158l.06.077-.898.23.02-.096.818-.211zm-.124-.159l-.654.17-.02.096.735-.188-.06-.078zm-.235-.302l-.341.088-.02.097.42-.108-.06-.077zm-.108-.148l.06.077-.277.07.02-.096.197-.051zm-.272.428l.497-.129.06.078-.577.147.02-.096zm7.08-.375l.362 1.868-.086-.035-.363-1.85.087.017zm.064 1.148l.02.096-2.785-.713-.001-.098 2.766.715zM8.28 13.51v.098l2.823.722-.02-.096-2.803-.724zm.002.19l2.842.735.02.096-2.861-.733-.001-.097zm.001.192l.001.097 2.9.742-.02-.095-2.88-.744zm1.444-.284a8.12 8.12 0 0 0-1.313-.36v.023l1.313.337zm.295-.018l.982.253.02.097-1.063-.272.061-.078zm.124-.159l-.061.078.898.23-.02-.097-.817-.21zm.123-.158l.654.169.02.096-.735-.188.06-.077zm.235-.302l.341.088.02.096-.42-.107.06-.077zm.108-.149l-.06.077.277.071-.02-.097-.197-.05zm.272.428l-.497-.128-.06.077.577.148-.02-.097zM7.396.368l-.18.126c.028.084.015.147-.04.19.05.052.15.104.15.157-.002.053-.035.097-.276.134.107.074.089.179-.055.315.136.142.141.198.063.284.21.021.215.027.252.11.02.145.105.148.134.009.034-.077.036-.082.29-.087-.126-.145-.05-.216.056-.276-.063-.145-.176-.192-.102-.331-.202-.09-.225-.09-.229-.15-.004-.074.113-.076.205-.15-.076-.05-.09-.12-.04-.213-.075-.04-.152-.079-.228-.118"/><path fill="#FFCB04" d="M7.387 2.266l.49 1.389h.011L6.18 5.987l-.004.014 1.21-.834V2.273z"/><path fill="#FFCB04" d="M9.338 3.7l-1.158.888.418 1.41-1.214-1.653-.794.256.004-.013-1.168-.896h.003l1.956.653z"/><path d="M7.937 13.205h.098c.018 0 .034.015.034.034v.74a.034.034 0 0 1-.034.035h-.098a.034.034 0 0 1-.035-.035v-.74c0-.019.016-.034.035-.034m-.324-.03h.098c.02 0 .035.015.035.034v.77a.034.034 0 0 1-.035.035h-.098a.034.034 0 0 1-.034-.035v-.77c0-.019.016-.034.034-.034m-.288-.016h.098c.018 0 .034.016.034.035v.785a.034.034 0 0 1-.034.035h-.098a.034.034 0 0 1-.035-.035v-.785c0-.02.016-.035.035-.035m-.309.016h.098c.019 0 .034.015.034.034v.77a.034.034 0 0 1-.034.035h-.098a.034.034 0 0 1-.034-.035v-.77c0-.019.015-.034.034-.034m-.308.03h.098c.018 0 .034.015.034.034v.74a.034.034 0 0 1-.034.035h-.098a.034.034 0 0 1-.035-.035v-.74c0-.019.016-.034.035-.034m.935-12.8c3.527.133 6.364 3.054 6.364 6.618l-.002.088a2.5 2.5 0 0 0 .14-.103c-.01-3.717-3.04-6.746-6.754-6.746C3.704.262.691 3.25.641 6.93c.043.038.089.073.137.108v-.015c0-3.592 2.881-6.532 6.448-6.62L7.401.28l.242.125" fill="#FFF100"/><path d="M.587 5.939l.02-.166a.667.667 0 0 0-.393.642c.005.494.385.756 1.01 1.034 1.083.485 1.55.854 2.045 1.759l.009-.16c-.39-.813-1.104-1.267-2.04-1.697C.81 7.155.32 6.84.332 6.415a.552.552 0 0 1 .254-.476" fill="#FFF100"/><path d="M.769 6.069c-.05.211-.084.455-.025.667-.197-.08-.358-.172-.34-.347.014-.13.184-.256.365-.32m1.699.799c-.058-.422.183-.934.677-1.337-.549.847-.549 1.65-.517 2.543-.179-.54-.226-.996.17-1.997-.172.242-.21.392-.33.791m1.092.923c-.03-.022-.062-.02-.095.01.077-.308.259-.515.564-.839-.194.248-.376.505-.47.829m.554.321c.299-.674.885-1.1 1.685-1.197-.637.252-1.12.637-1.383 1.215.001-.012-.083-.035-.084-.019.134-.282.355-.552.64-.81a1.626 1.626 0 0 0-.725.791.733.733 0 0 0-.133.02m-.924-.787c.113.012.167.147.12.3-.046.154-.175.268-.288.256-.113-.013-.167-.148-.121-.301.046-.154.175-.268.289-.255m-.157.589c.12-.005.233.116.25.269.019.153-.065.281-.186.286-.12.004-.233-.116-.251-.27-.018-.153.066-.28.187-.285m.623-.043c.117.01.181.143.144.297-.038.154-.162.271-.278.261-.117-.01-.181-.143-.144-.297.037-.154.162-.27.278-.26m.235.536c.075.036.058.18-.038.322-.096.142-.235.227-.31.19-.076-.036-.06-.18.037-.322.096-.141.235-.227.31-.19" fill="#FFF100"/><path d="M2.819 7.537c.089-.005.171.129.185.298.013.169-.049.31-.138.315-.09.005-.172-.128-.185-.297-.013-.17.048-.31.138-.316m.741-.16c.065.037.035.162-.068.278-.103.117-.24.181-.306.144-.066-.037-.036-.161.067-.278.103-.116.24-.18.306-.144m.531.774c-.068.043-.206-.023-.307-.147s-.127-.259-.058-.301c.068-.043.206.023.307.147s.127.259.059.301" fill="#FFF100"/><path d="M3.957 7.342c-.143.088-.231.228-.198.313.032.085.174.083.316-.004.142-.088.23-.228.198-.313-.033-.086-.174-.084-.316.004m-.609.523a.221.221 0 1 1 0 .442.221.221 0 0 1 0-.442m1.042-.238c.074.063.055.2-.043.304-.097.104-.236.138-.31.074-.074-.063-.055-.2.042-.304.098-.104.236-.137.31-.074m-1.094.696a.222.222 0 1 1 0 .444.222.222 0 0 1 0-.444m.904-.125c.163-.025.3.051.309.17.008.12-.118.238-.28.263-.164.026-.302-.05-.31-.17-.008-.12.118-.237.28-.263m.382-.972c.122 0 .221.078.221.174 0 .097-.099.175-.22.175-.123 0-.222-.078-.222-.175 0-.096.099-.174.221-.174m.646.335c.114.1.171.238.127.309-.043.071-.171.048-.285-.051-.114-.1-.172-.238-.128-.309.043-.071.171-.048.286.051M4.193 9.288c.189 0 .342.1.342.222s-.153.221-.342.221c-.19 0-.342-.099-.342-.221 0-.123.153-.222.342-.222m-.554-.286c.112.013.164.165.116.34-.048.174-.179.305-.29.292-.113-.013-.165-.165-.117-.34.048-.174.179-.305.29-.292m-.753.157c.086-.045.226.015.313.134.088.12.09.253.005.297-.086.045-.226-.015-.313-.135-.088-.119-.09-.252-.005-.296" fill="#FFF100"/><path d="M3.786 9.43c.122 0 .221.146.221.326 0 .18-.099.327-.221.327-.123 0-.222-.146-.222-.327 0-.18.1-.326.222-.326m.872.727c.119-.01.24.11.27.268.03.157-.04.293-.158.302-.119.01-.24-.11-.27-.268-.031-.157.04-.292.158-.302" fill="#FFF100"/><path d="M4.833 10.036c.107-.02.242.06.3.181.06.12.02.235-.087.255-.107.02-.241-.06-.3-.181-.06-.12-.02-.235.087-.255M3.225 9.64c.07-.034.207.034.307.153.101.118.126.24.057.275-.07.033-.208-.035-.308-.153s-.126-.242-.056-.275m.325.46c.073-.041.212.018.31.133.097.115.117.242.043.284-.074.041-.213-.018-.31-.133-.098-.115-.117-.242-.043-.283" fill="#FFF100"/><path d="M4.096 10.228a.221.221 0 1 1 0 .442.221.221 0 0 1 0-.442M2.817 9.59c.081-.035.22.032.313.149.092.117.1.24.02.275-.08.035-.22-.031-.312-.149-.092-.117-.101-.24-.02-.275" fill="#FFF100"/><path d="M3.12 10.023c.088-.04.228.025.313.142.085.117.082.243-.007.282-.088.039-.228-.025-.313-.142-.084-.117-.081-.244.007-.282" fill="#FFF100"/><path d="M2.955 9.945a.221.221 0 1 1 0 .443.221.221 0 0 1 0-.443m.605.453a.221.221 0 1 1 0 .443.221.221 0 0 1 0-.443" fill="#FFF100"/><path d="M3.096 10.582c.095-.045.234.011.31.125.078.114.063.242-.032.287-.096.044-.235-.012-.312-.126-.076-.113-.061-.242.034-.286" fill="#FFF100"/><path d="M2.91 10.262c.095-.044.234.012.311.125.077.114.062.243-.033.287-.095.045-.235-.011-.312-.125-.076-.114-.061-.242.034-.287m.43-1.849c.077.047.18.081.31.103-.083.22-.01.34.038.462-.116-.072-.142-.167-.155-.264-.077.1-.064.2-.038.301-.182-.09-.181-.335-.155-.602m.765 1.224l.113-.01a3.2 3.2 0 0 0 .254.961l-.057.01c-.15-.285-.26-.6-.31-.961zm-.16-.028c.032.357.18.694.338 1.026h.113c-.171-.336-.31-.671-.338-1.007l-.113-.02zm.207-1.055c-.057.22-.075.44-.057.66h.15c-.031-.22-.014-.44.03-.66h-.123zm-.16-.01h.113a1.52 1.52 0 0 0-.057.67l-.131.056c-.025-.242 0-.484.075-.726zM1.64 10.428c.287.452.572.922.884 1.093l.132-.113c-.413-.323-.76-.642-1.016-.98m.254-.838c.113.251.232.502.395.753l.123-.065c-.23-.21-.364-.453-.518-.688m.489.876c.15.223.326.446.527.669l.075-.066a5.74 5.74 0 0 1-.508-.65l-.094.047zM.983 8.61c.097-.03.236.048.31.174.074.127.055.253-.043.282-.097.03-.236-.049-.31-.175-.074-.126-.055-.252.043-.281" fill="#FFF100"/><path d="M1.238 8.731c.09-.019.23.082.313.225.083.144.078.275-.012.294-.09.019-.23-.082-.313-.225-.083-.143-.078-.275.012-.294m-.107.384c.08-.022.219.07.312.205.094.135.105.263.026.286-.078.022-.218-.07-.311-.205-.094-.135-.106-.263-.027-.286" fill="#FFF100"/><path d="M1.453 9.296c.074-.033.213.052.31.19.098.137.116.274.042.307-.074.032-.213-.053-.31-.19s-.116-.275-.042-.307m-.059.422c.063-.033.199.069.303.228.105.16.14.315.076.349-.063.033-.199-.07-.304-.229-.104-.159-.138-.315-.075-.348m.41.15c.068-.042.205.05.307.203.101.154.128.312.06.353-.068.042-.205-.05-.307-.203-.101-.154-.128-.312-.06-.353m.258.636c.07-.048.209.022.309.155s.124.28.054.327c-.07.048-.208-.022-.308-.155s-.125-.28-.055-.327m-.136-1.55c.09-.029.23.076.313.235.083.158.077.31-.012.339-.09.028-.23-.077-.313-.235-.083-.159-.078-.31.012-.34" fill="#FFF100"/><path d="M2.269 9.056c.09-.022.23.06.313.183.083.123.077.242-.012.264-.09.022-.23-.06-.313-.183-.083-.123-.078-.242.012-.264m-.095.557c.085-.03.225.064.313.209s.091.286.006.315c-.085.03-.225-.064-.313-.209s-.09-.286-.006-.315m.261-.075c.071-.017.21.07.309.193.1.123.124.237.053.254-.07.017-.209-.07-.309-.193s-.123-.237-.053-.254" fill="#FFF100"/><path d="M2.524 10.12c.058-.025.193.077.3.227.107.15.147.293.088.318-.059.025-.193-.076-.3-.227-.108-.15-.147-.292-.088-.317m-1.1-1.331c.065.23.223.444.422.65.07-.19-.06-.236-.12-.566l-.302-.085zm2.426.145c.105 0 .19.1.19.221 0 .123-.085.222-.19.222-.106 0-.192-.1-.192-.222s.086-.221.191-.221m.898 1.834a.221.221 0 1 1 0 .442.221.221 0 0 1 0-.442" fill="#FFF100"/><path d="M4.975 11.15c.092 0 .167.08.167.178 0 .099-.075.179-.167.179-.092 0-.167-.08-.167-.179 0-.099.075-.179.167-.179" fill="#FFF100"/><path d="M4.949 11.35c.112 0 .204.066.204.15 0 .082-.092.149-.204.149-.113 0-.204-.067-.204-.15 0-.083.091-.15.204-.15M3.859 8.14c.109 0 .198.094.198.21 0 .116-.089.21-.198.21-.11 0-.198-.094-.198-.21 0-.116.088-.21.198-.21m-.856-2.856c.085.023.083.14-.005.26-.088.12-.228.198-.313.174-.085-.024-.083-.14.005-.26.088-.12.228-.198.313-.174m-.318.487c.093.014.104.149.024.3-.08.153-.22.264-.312.25-.093-.014-.104-.148-.024-.3.08-.152.22-.264.312-.25m-.274.664c.123 0 .222.127.222.284 0 .157-.1.284-.222.284s-.22-.127-.22-.284c0-.157.098-.284.22-.284m-.001.788c.122 0 .221.14.221.313s-.099.313-.221.313-.222-.14-.222-.313.1-.313.222-.313m-.857-.299c.122 0 .221.114.221.254s-.099.254-.22.254c-.123 0-.222-.114-.222-.254s.099-.254.221-.254" fill="#FFF100"/><path d="M1.905 6.714c.122 0 .221.14.221.31 0 .172-.099.311-.221.311s-.222-.139-.222-.31c0-.172.1-.31.222-.31" fill="#FFF100"/><path d="M1.565 6.234c.123 0 .222.142.222.317 0 .174-.1.316-.222.316s-.22-.142-.22-.316c0-.175.098-.317.22-.317" fill="#FFF100"/><path d="M1.925 6.04c.122 0 .221.127.221.286 0 .158-.099.286-.22.286-.123 0-.222-.128-.222-.286 0-.159.099-.287.221-.287m-.229-.452c.118.017.185.16.151.32s-.157.275-.274.259c-.117-.017-.185-.16-.15-.32.033-.16.156-.275.273-.259" fill="#FFF100"/><path d="M2.009 5.48c.122 0 .22.116.22.26 0 .144-.098.26-.22.26-.123 0-.222-.116-.222-.26 0-.144.1-.26.222-.26m-.133-.53c.117.018.182.16.146.317-.036.157-.16.27-.277.252-.117-.017-.182-.159-.146-.316.036-.157.16-.27.277-.252" fill="#FFF100"/><path d="M2.096 4.476c.11.023.157.15.104.285-.053.134-.185.224-.295.201-.11-.023-.157-.15-.104-.285.053-.134.185-.224.295-.2m.564-.566c.08.036.069.176-.024.313s-.233.22-.312.183c-.08-.036-.069-.176.024-.313s.233-.219.312-.183" fill="#FFF100"/><path d="M2.405 4.431c.11.025.155.142.102.262-.054.12-.186.196-.296.172-.11-.025-.156-.142-.102-.261.053-.12.186-.197.296-.173m-.037-.428c.084.043.08.177-.009.3s-.229.188-.313.146c-.084-.043-.08-.177.009-.3.088-.123.229-.188.313-.146m-.13.884c.111.018.16.153.11.301s-.182.253-.293.234c-.111-.019-.16-.154-.11-.302.05-.147.182-.252.293-.233M1.4 4.93c.105.028.138.164.074.305-.064.142-.2.235-.305.208-.104-.026-.137-.163-.073-.304.064-.142.2-.235.305-.208m.186-.523c.108.021.151.149.095.284-.056.136-.19.228-.298.207-.109-.021-.151-.149-.095-.284.055-.136.189-.228.298-.207m.225-.498c.094.033.108.16.03.285-.078.125-.218.2-.312.168-.094-.031-.107-.158-.03-.283.078-.125.218-.2.312-.17m1.261-.515c.06.059.02.204-.087.324-.107.12-.242.171-.3.113-.06-.059-.02-.204.087-.325.107-.12.242-.17.3-.112m.567-.558c.059.07.003.229-.125.353-.127.125-.277.168-.335.098-.058-.071-.002-.23.125-.354.128-.124.278-.168.336-.097m.52-.405c.049.073-.02.219-.155.324-.134.106-.281.133-.33.06-.048-.074.022-.22.156-.325.134-.106.281-.132.33-.059m.518-.312c.04.078-.037.218-.171.312-.135.095-.276.109-.315.031-.04-.077.037-.217.172-.311.134-.095.275-.109.315-.031m.574-.273c.025.096-.074.235-.222.311-.148.076-.288.06-.314-.036-.025-.095.075-.235.222-.31.148-.076.289-.06.314.035m.585-.196c.013.107-.1.242-.252.3-.152.058-.286.018-.299-.089-.013-.107.1-.242.251-.3.152-.058.286-.018.3.089" fill="#FFF100"/><path d="M3.015 3.077c.06.053.02.186-.087.296-.107.11-.242.156-.3.102-.06-.053-.02-.186.087-.296.107-.11.241-.155.3-.102" fill="#FFF100"/><path d="M3.365 2.65c.059.055.02.192-.087.305-.107.113-.242.16-.3.105-.06-.055-.02-.191.086-.304.108-.113.242-.16.301-.106" fill="#FFF100"/><path d="M3.784 2.27c.059.058.02.202-.088.321-.107.12-.241.17-.3.111-.059-.058-.02-.202.087-.321.107-.12.242-.17.3-.111" fill="#FFF100"/><path d="M4.269 1.994c.035.08-.04.22-.168.312-.129.093-.262.103-.297.023-.036-.08.04-.22.168-.312.129-.093.261-.103.297-.023m.47-.298c.033.08-.038.22-.16.312-.121.093-.247.103-.28.024-.034-.08.037-.22.159-.313.121-.092.247-.103.28-.023M2.676 3.542c.059.053.02.186-.087.296-.107.11-.242.156-.3.102-.06-.053-.02-.186.086-.296.108-.11.242-.156.301-.102" fill="#FFF100"/><path d="M2.626 3.292c.059.054.02.186-.087.296-.107.11-.242.156-.301.103-.059-.054-.02-.186.087-.296.107-.11.242-.156.3-.103m-.118-.417c.06.057.02.199-.087.317s-.242.167-.3.11c-.06-.058-.02-.2.087-.318.107-.117.241-.167.3-.11m.397-.436c.053.063.006.206-.106.319-.112.114-.246.155-.3.092-.052-.062-.004-.205.108-.318.112-.114.245-.155.298-.093m.521-.435c.048.078-.03.226-.172.33-.143.105-.297.127-.344.05-.047-.078.03-.226.173-.331.142-.105.296-.127.343-.05m.462-.367c.04.075-.03.214-.155.31-.125.097-.259.115-.298.04-.04-.075.03-.214.155-.31.125-.097.259-.115.298-.04m.523-.286c.03.089-.057.229-.193.313-.136.084-.27.08-.3-.009-.029-.088.058-.228.194-.312.136-.085.27-.08.3.008M2.154 3.362c.072.054.052.213-.047.355-.098.143-.237.214-.31.16-.072-.053-.051-.213.047-.355s.237-.214.31-.16m-.026.537c.08.027.07.146-.023.266-.093.12-.233.194-.313.167-.08-.027-.069-.146.024-.266.092-.12.232-.194.312-.167M1.225 5.47c.114.02.17.157.126.31-.045.152-.173.261-.287.243-.114-.019-.17-.157-.125-.31.044-.152.172-.26.286-.242m-.088.608c.117.014.181.146.145.294-.037.148-.16.256-.277.242C.888 6.6.823 6.469.86 6.32c.036-.148.16-.256.277-.242m-.122.586c.122 0 .221.108.221.242s-.1.242-.221.242c-.123 0-.222-.108-.222-.242s.1-.242.222-.242m2.356-3.337c-.504.43-.973 1.06-1.262 2.087-.028.1.078.16.104.081.276-.817.618-1.554 1.158-2.168m1.65-1.877c.16-.092.308-.1.33-.018.024.081-.087.221-.247.312s-.308.1-.33.018c-.023-.082.088-.222.247-.313m.634-.243c.15-.054.278-.009.285.1.006.11-.11.243-.261.297-.151.054-.278.01-.285-.1-.007-.11.11-.242.261-.297m-1.039-.12c.13-.077.263-.062.298.033.035.095-.043.235-.173.311-.13.077-.263.062-.298-.033-.035-.095.043-.235.173-.311M5.18.845c.147-.062.282-.026.302.08.02.105-.084.24-.232.302-.147.061-.283.026-.302-.08-.02-.105.084-.24.231-.302m.56-.162c.138-.053.264-.006.28.105.015.11-.085.242-.224.295-.139.052-.264.006-.28-.105C5.5.868 5.6.736 5.74.683M6.317.56c.14-.046.264.01.277.123.014.113-.087.242-.227.287-.14.046-.264-.01-.278-.123-.013-.114.088-.242.228-.288m.582-.085c.15-.022.278.057.284.178.006.12-.11.235-.262.258-.15.022-.278-.057-.284-.177-.007-.12.11-.236.262-.259m-.681.624c.148-.033.276.035.286.153.01.117-.102.24-.25.273-.147.034-.275-.035-.285-.152-.01-.118.102-.24.25-.274" fill="#FFF100"/><path d="M6.15 1.413c.156-.026.29.05.3.169.01.12-.108.237-.264.263-.156.026-.29-.05-.3-.169-.01-.12.108-.237.264-.263m.649-.397c.133 0 .241.099.241.221s-.108.221-.241.221c-.134 0-.242-.099-.242-.221s.108-.221.242-.221" fill="#FFF100"/><path d="M6.771 1.339c.142 0 .258.099.258.221s-.116.222-.258.222c-.142 0-.257-.1-.257-.222s.115-.221.257-.221M4.848 11.746c-.006-.156-.142-.3-.194-.2a.447.447 0 0 1-.39.248.501.501 0 0 1-.364-.136.551.551 0 0 0-.289-.147c-.11-.014-.171.051-.158.194.024.258.148.417.495.418.346.002.583-.225.9-.377m-3.115-.786c-.093.176-.118.37.028.52a.574.574 0 0 0 .496.15 5.556 5.556 0 0 1-.524-.67m.842-1.736c.086-.043.226.013.313.127.088.114.089.243.003.286-.086.044-.226-.012-.313-.127-.087-.114-.088-.242-.003-.286m11.642-3.285l-.02-.166c.283.146.395.368.392.642-.005.494-.384.756-1.008 1.034-1.084.485-1.55.854-2.046 1.759l-.009-.16c.39-.813 1.104-1.267 2.04-1.697.428-.196.917-.512.905-.936a.552.552 0 0 0-.254-.476" fill="#FFF100"/><path d="M14.223 6.069c.05.211.084.455.025.667.197-.08.358-.172.34-.347-.015-.13-.184-.256-.365-.32m-1.887.799c.058-.422-.183-.934-.677-1.337.548.847.548 1.65.517 2.543.179-.54.226-.996-.17-1.997.172.242.21.392.33.791m-1.091.923c.03-.022.06-.02.094.01-.077-.308-.259-.515-.565-.839.195.248.377.505.47.829m-.554.321c-.298-.674-.884-1.1-1.684-1.197.637.252 1.12.637 1.383 1.215-.001-.012.083-.035.084-.019-.134-.282-.355-.552-.64-.81.286.154.538.388.725.791a.733.733 0 0 1 .133.02" fill="#FFF100"/><path d="M11.788 7.325c-.113.012-.167.147-.12.3.046.154.175.268.288.256.113-.013.167-.148.12-.301-.046-.154-.175-.268-.288-.255m.175.589c-.121-.005-.234.116-.251.269-.018.153.065.281.186.286.121.004.234-.116.252-.27.017-.153-.066-.28-.187-.285m-.635-.043c-.117.01-.18.143-.144.297.038.154.162.271.279.261.116-.01.18-.143.143-.297-.037-.154-.162-.27-.278-.26m-.344.536c-.076.036-.059.18.037.322.096.142.235.227.311.19.076-.036.059-.18-.037-.322-.096-.141-.236-.227-.311-.19" fill="#FFF100"/><path d="M12.153 7.537c-.09-.005-.172.129-.185.298-.013.169.049.31.138.315.089.005.172-.128.185-.297.013-.17-.049-.31-.138-.316m-.856-.16c-.065.037-.035.162.068.278.103.117.24.181.305.144.066-.037.036-.161-.067-.278-.103-.116-.24-.18-.306-.144m-.487.774c.07.043.207-.023.308-.147.1-.124.127-.259.058-.301-.068-.043-.206.023-.307.147s-.127.259-.059.301m.037-.809c.142.088.231.228.198.313-.033.085-.174.083-.316-.004-.142-.088-.231-.228-.198-.313.033-.086.174-.084.316.004m.814.523a.221.221 0 1 0 0 .442.221.221 0 0 0 0-.442" fill="#FFF100"/><path d="M10.587 7.627c-.074.063-.055.2.042.304.097.104.236.138.31.074.074-.063.056-.2-.042-.304-.097-.104-.236-.137-.31-.074m1.143.696a.222.222 0 1 0 0 .444.222.222 0 0 0 0-.444m-1.125-.125c-.163-.025-.301.051-.309.17-.008.12.118.238.28.263.164.026.302-.05.31-.17.008-.12-.118-.237-.28-.263m-.25-.972c-.122 0-.221.078-.221.174 0 .097.099.175.221.175s.221-.078.221-.175c0-.096-.099-.174-.22-.174m-.732.335c-.114.1-.171.238-.128.309.044.071.172.048.286-.051.114-.1.172-.238.128-.309-.044-.071-.171-.048-.286.051m.986 1.727c-.189 0-.342.1-.342.222s.153.221.342.221c.189 0 .342-.099.342-.221 0-.123-.153-.222-.342-.222m.713-.286c-.112.013-.164.165-.116.34.049.174.179.305.291.292.112-.013.164-.165.116-.34-.048-.174-.178-.305-.29-.292" fill="#FFF100"/><path d="M11.988 9.159c-.086-.045-.226.015-.314.134-.087.12-.089.253-.004.297.086.045.226-.015.313-.135.088-.119.09-.252.005-.296m-.853.271c-.122 0-.221.146-.221.326 0 .18.099.327.221.327s.221-.146.221-.327c0-.18-.099-.326-.22-.326m-.796.727c-.118-.01-.238.11-.27.268-.03.157.041.293.16.302.118.01.239-.11.27-.268.03-.157-.04-.292-.16-.302" fill="#FFF100"/><path d="M10.165 10.036c-.107-.02-.241.06-.3.181-.059.12-.02.235.087.255.107.02.242-.06.3-.181.06-.12.02-.235-.087-.255m1.523-.396c-.07-.034-.207.034-.308.153-.1.118-.126.24-.056.275.07.033.207-.035.308-.153.1-.118.126-.242.056-.275m-.308.46c-.074-.041-.213.018-.31.133-.098.115-.117.242-.043.284.073.041.212-.018.31-.133.097-.115.117-.242.043-.283" fill="#FFF100"/><path d="M10.922 10.228a.221.221 0 1 0 0 .442.221.221 0 0 0 0-.442m1.182-.638c-.08-.035-.22.032-.312.149-.092.117-.101.24-.02.275.08.035.22-.031.312-.149.092-.117.1-.24.02-.275m-.322.433c-.088-.04-.229.025-.313.142-.085.117-.082.243.007.282.088.039.228-.025.313-.142.084-.117.081-.244-.007-.282" fill="#FFF100"/><path d="M11.983 9.945a.221.221 0 1 0 0 .443.221.221 0 0 0 0-.443m-.62.453a.221.221 0 1 0 0 .443.221.221 0 0 0 0-.443" fill="#FFF100"/><path d="M11.84 10.582c-.094-.045-.234.011-.31.125-.077.114-.062.242.033.287.095.044.234-.012.311-.126.077-.113.062-.242-.033-.286" fill="#FFF100"/><path d="M12.054 10.262c-.095-.044-.234.012-.31.125-.078.114-.063.243.033.287.095.045.234-.011.31-.125.077-.114.063-.242-.033-.287m-.404-1.849a.885.885 0 0 1-.31.103c.083.22.01.34-.039.462.117-.072.142-.167.155-.264.078.1.065.2.039.301.181-.09.18-.335.155-.602m-.95 1.224l-.114-.01a3.2 3.2 0 0 1-.254.961l.057.01c.15-.285.26-.6.31-.961zm.16-.028c-.033.357-.182.694-.34 1.026h-.112c.171-.336.31-.671.338-1.007l.113-.02zm-.208-1.055c.057.22.075.44.057.66h-.151c.032-.22.015-.44-.028-.66h.122zm.16-.01h-.113c.07.223.088.446.057.67l.131.056c.025-.242 0-.484-.075-.726zm2.352 1.884c-.287.452-.572.922-.885 1.093l-.131-.113c.413-.323.76-.642 1.016-.98m-.254-.838a5.416 5.416 0 0 1-.395.753l-.123-.065c.23-.21.364-.453.518-.688m-.49.876c-.15.223-.326.446-.526.669l-.075-.066a5.74 5.74 0 0 0 .507-.65l.095.047zm1.6-1.856c-.098-.03-.237.048-.31.174-.074.127-.055.253.042.282.098.03.237-.049.31-.175.074-.126.055-.252-.042-.281" fill="#FFF100"/><path d="M13.742 8.731c-.09-.019-.23.082-.313.225-.083.144-.078.275.012.294.09.019.23-.082.313-.225.083-.143.077-.275-.012-.294" fill="#FFF100"/><path d="M13.83 9.115c-.078-.022-.218.07-.311.205-.094.135-.105.263-.026.286.079.022.218-.07.312-.205.093-.135.105-.263.026-.286m-.424.181c-.074-.033-.213.052-.31.19-.097.137-.116.274-.041.307.074.032.213-.053.31-.19s.116-.275.041-.307m.05.422c-.063-.033-.2.069-.304.228-.105.16-.139.315-.076.349.063.033.2-.07.304-.229.105-.159.139-.315.076-.348m-.439.15c-.068-.042-.205.05-.307.203-.101.154-.128.312-.06.353.068.042.205-.05.307-.203.101-.154.128-.312.06-.353m-.254.636c-.07-.048-.208.022-.308.155s-.124.28-.054.327c.07.048.208-.022.308-.155s.125-.28.054-.327m.211-1.55c-.09-.029-.23.076-.313.235-.083.158-.077.31.013.339.09.028.23-.077.312-.235.083-.159.078-.31-.012-.34" fill="#FFF100"/><path d="M12.709 9.056c-.09-.022-.23.06-.313.183-.083.123-.078.242.012.264.09.022.23-.06.313-.183.083-.123.077-.242-.012-.264m.029.557c-.085-.03-.225.064-.313.209s-.09.286-.006.315c.085.03.225-.064.313-.209s.09-.286.006-.315m-.305-.075c-.07-.017-.208.07-.308.193s-.124.237-.053.254c.07.017.209-.07.308-.193.1-.123.124-.237.053-.254" fill="#FFF100"/><path d="M12.38 10.12c-.059-.025-.193.077-.3.227-.108.15-.147.293-.089.318.059.025.194-.076.3-.227.108-.15.147-.292.089-.317m1.029-1.331c-.066.23-.223.444-.423.65-.07-.19.06-.236.121-.566l.302-.085zm-2.257.145c-.106 0-.192.1-.192.221 0 .123.086.222.192.222.105 0 .191-.1.191-.222s-.086-.221-.191-.221m-.924 1.834a.221.221 0 1 0 0 .442.221.221 0 0 0 0-.442" fill="#FFF100"/><path d="M10.001 11.15c-.092 0-.167.08-.167.178 0 .099.075.179.167.179.092 0 .167-.08.167-.179 0-.099-.075-.179-.167-.179" fill="#FFF100"/><path d="M10.065 11.35c-.113 0-.204.066-.204.15 0 .082.091.149.204.149.112 0 .203-.067.203-.15 0-.083-.09-.15-.203-.15m1.084-3.209c-.11 0-.198.094-.198.21 0 .116.088.21.198.21.109 0 .198-.094.198-.21 0-.116-.089-.21-.198-.21m.836-2.856c-.085.023-.082.14.006.26.087.12.228.198.312.174.085-.024.083-.14-.005-.26-.088-.12-.228-.198-.313-.174m.29.487c-.092.014-.103.149-.023.3.08.153.219.264.312.25.092-.014.103-.148.023-.3-.08-.152-.219-.264-.312-.25m.317.664c-.122 0-.221.127-.221.284 0 .157.099.284.22.284.123 0 .222-.127.222-.284 0-.157-.099-.284-.221-.284m-.023.788c-.122 0-.222.14-.222.313s.1.313.222.313.221-.14.221-.313-.099-.313-.221-.313m.818-.299c-.122 0-.222.114-.222.254s.1.254.222.254.221-.114.221-.254-.099-.254-.221-.254" fill="#FFF100"/><path d="M13.054 6.714c-.122 0-.221.14-.221.31 0 .172.1.311.221.311.123 0 .222-.139.222-.31 0-.172-.1-.31-.222-.31" fill="#FFF100"/><path d="M13.378 6.234c-.123 0-.222.142-.222.317 0 .174.1.316.222.316s.221-.142.221-.316c0-.175-.1-.317-.221-.317" fill="#FFF100"/><path d="M13.029 6.04c-.122 0-.222.127-.222.286 0 .158.1.286.222.286s.221-.128.221-.286c0-.159-.099-.287-.221-.287m.195-.452c-.117.017-.185.16-.151.32s.157.275.274.259c.118-.017.185-.16.151-.32s-.157-.275-.274-.259" fill="#FFF100"/><path d="M12.943 5.48c-.122 0-.221.116-.221.26 0 .144.099.26.221.26s.222-.116.222-.26c0-.144-.1-.26-.222-.26m.122-.53c-.117.018-.182.16-.146.317.036.157.16.27.277.252.116-.017.182-.159.145-.316-.036-.157-.16-.27-.276-.252" fill="#FFF100"/><path d="M12.878 4.476c-.11.023-.157.15-.105.285.053.134.185.224.296.201.11-.023.156-.15.104-.285-.053-.134-.185-.224-.295-.2m-.653-.566c-.08.036-.07.176.024.313.093.137.232.22.312.183.08-.036.069-.176-.024-.313s-.233-.219-.312-.183" fill="#FFF100"/><path d="M12.579 4.431c-.11.025-.156.142-.102.262.053.12.186.196.296.172.11-.025.155-.142.102-.261-.054-.12-.186-.197-.296-.173" fill="#FFF100"/><path d="M12.598 4.003c-.084.043-.08.177.009.3.088.123.229.188.313.146.084-.043.08-.177-.009-.3s-.229-.188-.313-.146m.176.884c-.112.018-.16.153-.11.301s.181.253.293.234c.11-.019.16-.154.11-.302-.05-.147-.182-.252-.293-.233m.739.043c-.104.028-.137.164-.073.305.064.142.2.235.305.208.104-.026.137-.163.073-.304-.064-.142-.2-.235-.305-.208m-.158-.523c-.109.021-.152.149-.096.284.056.136.19.228.298.207.109-.021.152-.149.096-.284-.056-.136-.19-.228-.298-.207m-.21-.498c-.095.033-.108.16-.03.285.078.125.218.2.312.168.094-.031.107-.158.03-.283-.079-.125-.218-.2-.312-.17m-1.401-.515c-.059.059-.02.204.087.324.108.12.242.171.301.113.059-.059.02-.204-.087-.325-.107-.12-.242-.17-.3-.112m-.582-.558c-.058.07-.002.229.125.353.128.125.278.168.336.098.058-.071.002-.23-.126-.354-.127-.124-.277-.168-.335-.097m-.52-.405c-.049.073.02.219.155.324.134.106.281.133.33.06.047-.074-.022-.22-.156-.325-.134-.106-.281-.132-.33-.059m-.519-.312c-.04.078.038.218.172.312.135.095.276.109.315.031.04-.077-.037-.217-.172-.311-.134-.095-.275-.109-.315-.031m-.574-.273c-.026.096.074.235.222.311.148.076.288.06.313-.036.026-.095-.074-.235-.222-.31-.148-.076-.288-.06-.313.035m-.585-.196c-.013.107.1.242.252.3.152.058.286.018.299-.089.013-.107-.1-.242-.251-.3-.152-.058-.286-.018-.3.089m2.889 1.425c-.059.053-.02.186.088.296.107.11.241.156.3.102.06-.053.02-.186-.087-.296-.107-.11-.242-.155-.3-.102m-.375-.427c-.059.055-.02.192.087.305.107.113.242.16.3.105.06-.055.02-.191-.086-.304-.108-.113-.242-.16-.301-.106" fill="#FFF100"/><path d="M11.038 2.27c-.059.058-.02.202.087.321.107.12.242.17.3.111.06-.058.02-.202-.087-.321-.107-.12-.241-.17-.3-.111" fill="#FFF100"/><path d="M10.535 1.994c-.036.08.04.22.168.312.129.093.262.103.297.023.036-.08-.04-.22-.168-.312-.129-.093-.262-.103-.297-.023m-.47-.298c-.033.08.038.22.16.312.12.093.247.103.28.024.034-.08-.038-.22-.16-.313-.12-.092-.246-.103-.28-.023m2.115 1.846c-.06.053-.02.186.086.296.108.11.242.156.301.102.059-.053.02-.186-.087-.296-.107-.11-.242-.156-.3-.102" fill="#FFF100"/><path d="M12.334 3.292c-.059.054-.02.186.087.296.108.11.242.156.301.103.059-.054.02-.186-.087-.296-.107-.11-.242-.156-.3-.103m-.015-.417c-.059.057-.02.199.087.317s.242.167.3.11c.06-.058.02-.2-.087-.318-.107-.117-.241-.167-.3-.11m-.42-.436c-.054.063-.006.206.106.319.112.114.246.155.299.092.053-.062.005-.205-.107-.318-.112-.114-.245-.155-.299-.093m-.521-.435c-.047.078.03.226.173.33.143.105.297.127.344.05.047-.078-.03-.226-.173-.331-.142-.105-.296-.127-.344-.05m-.461-.367c-.04.075.03.214.155.31.125.097.259.115.298.04.04-.075-.03-.214-.155-.31-.126-.097-.259-.115-.298-.04m-.524-.286c-.03.089.057.229.194.313.136.084.27.08.3-.009.029-.088-.058-.228-.194-.312-.136-.085-.27-.08-.3.008" fill="#FFF100"/><path d="M12.725 3.362c-.073.054-.052.213.046.355.098.143.237.214.31.16.072-.053.052-.213-.047-.355-.098-.142-.237-.214-.31-.16m.101.537c-.08.027-.07.146.023.266.093.12.233.194.313.167.08-.027.069-.146-.024-.266-.092-.12-.232-.194-.312-.167m.869 1.571c-.114.02-.17.157-.126.31.044.152.173.261.287.243.113-.019.17-.157.125-.31-.044-.152-.172-.26-.286-.242m.105.608c-.117.014-.182.146-.145.294.036.148.16.256.277.242.117-.014.182-.146.145-.294-.036-.148-.16-.256-.277-.242m.116.585c-.122 0-.221.108-.221.242s.099.242.22.242c.123 0 .222-.108.222-.242s-.099-.242-.221-.242m-2.483-3.337c.505.43.974 1.06 1.263 2.087.028.1-.078.16-.104.081-.276-.817-.618-1.554-1.159-2.168M9.783 1.45c-.16-.092-.308-.1-.33-.018-.024.081.087.221.247.312s.308.1.33.018c.023-.082-.088-.222-.247-.313m-.634-.243c-.15-.054-.278-.009-.285.1-.006.11.11.243.261.297.15.054.278.01.285-.1.006-.11-.11-.242-.261-.297m1.039-.12c-.13-.077-.263-.062-.298.033-.035.095.042.235.172.311.13.077.264.062.299-.033.034-.095-.043-.235-.173-.311M9.625.845c-.148-.062-.283-.026-.303.08-.02.105.084.24.232.302.147.061.283.026.302-.08.02-.105-.084-.24-.231-.302m-.56-.162c-.139-.053-.264-.006-.28.105-.015.11.085.242.224.295.139.052.264.006.28-.105.015-.11-.085-.242-.224-.295M8.487.56c-.14-.046-.264.01-.278.123-.014.113.088.242.228.287.14.046.263-.01.277-.123.014-.114-.087-.242-.227-.288M7.905.474c-.15-.022-.278.057-.284.178-.006.12.11.235.262.258.15.022.278-.057.284-.177.006-.12-.11-.236-.262-.259m.681.624c-.148-.033-.276.035-.286.153-.01.117.102.24.25.273.147.034.275-.035.285-.152.01-.118-.102-.24-.25-.274" fill="#FFF100"/><path d="M8.654 1.413c-.156-.026-.29.05-.3.169-.01.12.108.237.264.263.156.026.29-.05.3-.169.01-.12-.108-.237-.264-.263m-.649-.397c-.133 0-.241.099-.241.221s.108.221.241.221c.134 0 .242-.099.242-.221s-.108-.221-.242-.221" fill="#FFF100"/><path d="M8.033 1.339c-.143 0-.258.099-.258.221s.115.222.258.222c.142 0 .257-.1.257-.222s-.115-.221-.257-.221m1.923 10.407c.006-.156.142-.3.194-.2.086.166.23.238.389.248a.501.501 0 0 0 .365-.136.551.551 0 0 1 .289-.147c.11-.014.171.051.158.194-.024.258-.149.417-.495.418-.346.002-.583-.225-.9-.377m3.097-.786c.093.176.118.369-.028.519a.574.574 0 0 1-.496.15 5.64 5.64 0 0 0 .524-.669m-.694-1.736c-.086-.043-.226.013-.313.127s-.089.243-.003.286c.086.044.226-.012.313-.127.087-.114.089-.242.003-.286" fill="#FFF100"/><path d="M13.212 10.733l-.108.154c.128.202.128.505-.044.659-.301.269-.71.153-1.14-.22-.306-.267-.65-.527-.986-.546-.424-.023-.764.148-.778.52-.009.246.13.411.337.436a.49.49 0 0 0 .394-.139c.106-.092.199-.14.306-.138.148.004.212.086.21.206-.004.319-.2.508-.527.505-.296-.003-.542-.16-.837-.313-.834-.435-1.543-.612-2.644-.612-1.031 0-1.81.176-2.645.612-.294.153-.526.309-.836.307-.292-.002-.505-.187-.51-.506-.001-.12.045-.19.193-.194.107-.003.2.038.305.13.135.118.266.17.395.154.206-.025.332-.202.324-.448-.014-.395-.397-.551-.765-.536-.271.011-.673.29-.985.58-.397.366-.765.514-1.115.226-.232-.19-.182-.472-.081-.693l-.074-.114c-.094.183-.17.423-.098.632a.69.69 0 0 0 .506.442c.206.05.553-.055.725-.197.177-.147.336-.292.52-.433.244-.189.57-.353.784-.306.24.052.433.153.448.397.012.207-.064.302-.216.308-.112.005-.237-.064-.318-.135a.508.508 0 0 0-.388-.136c-.208.01-.292.137-.295.339-.004.313.217.574.58.61.24.023.488-.056.67-.156 1.004-.55 1.777-.767 2.876-.767s1.899.229 2.902.778c.183.1.391.168.631.159.384-.015.615-.252.628-.63.006-.178-.146-.333-.33-.345a.485.485 0 0 0-.383.129c-.1.094-.21.156-.314.152-.145-.006-.244-.165-.237-.306.01-.185.203-.375.448-.38.285-.005.533.093.777.283.183.141.354.302.54.439.21.155.414.232.724.197a.64.64 0 0 0 .541-.46c.071-.232.018-.39-.11-.644" fill="#FFF100"/><path d="M10.233 12.634l.024-.116h-.002l-.104.084.082.032zm-.019-.182l.077.04-.022.288-.07-.036.006-.055-.092-.048-.036.04-.064-.034.201-.195zm-.2-.121a.063.063 0 0 1 .027-.037c.014-.008.026-.008.038 0a.126.126 0 0 1 .028.027l.024.026.001.001c.003.002.005.002.007 0a.035.035 0 0 0 .01-.01l.025.015a.077.077 0 0 1-.03.036.042.042 0 0 1-.018.005l-.009-.001a.036.036 0 0 1-.008-.004l-.01-.008-.008-.009-.017-.02-.008-.008-.008-.007c-.004-.003-.008-.003-.011-.001l-.01.01-.024-.015zm.015.027l-.103.246.064.03.103-.245-.064-.03zm-.263-.114l.066.027-.036.1.08.032.036-.1.065.027-.09.251-.066-.027.037-.103-.08-.033-.037.103-.066-.026.09-.251zm-.142.028l.066.024c.01-.031.007-.057-.01-.076a.128.128 0 0 0-.03-.026.29.29 0 0 0-.046-.02c-.045-.017-.082-.015-.112.005a.148.148 0 0 0-.036.036.173.173 0 0 0-.03.121.132.132 0 0 0 .027.06.118.118 0 0 0 .027.023.13.13 0 0 0 .032.017.393.393 0 0 0 .055.017c.022.005.046.01.07.013l.045-.135-.116-.042-.016.05.049.017-.015.046a.13.13 0 0 1-.02-.003l-.016-.005a.077.077 0 0 1-.035-.024.074.074 0 0 1-.016-.047.095.095 0 0 1 .005-.032.162.162 0 0 1 .014-.033.102.102 0 0 1 .02-.024.049.049 0 0 1 .051-.011.07.07 0 0 1 .03.017c.008.008.01.02.007.032zm-.438-.229l.096.027.033.217v-.001l.05-.192.06.017-.065.26-.094-.027-.033-.222-.05.198-.062-.017.065-.26zm-.283-.124c.001-.003.006-.007.014-.012l.017-.012a.016.016 0 0 0 .006-.01v-.007c0-.002-.001-.004-.004-.006l-.005-.004-.006-.001h-.007a.037.037 0 0 0-.01.004l-.008.006-.026-.005a.041.041 0 0 1 .023-.03.067.067 0 0 1 .042-.003.049.049 0 0 1 .02.009l.014.013a.022.022 0 0 1 .006.012v.017a.024.024 0 0 1-.01.015.087.087 0 0 1-.02.011.048.048 0 0 0-.014.008l-.006.012-.001.007-.03-.005.002-.004.003-.015zm-.123.024l.068.015-.032.158a.07.07 0 0 0 .004.046c.007.013.018.02.035.025.033.007.053-.01.061-.05l.032-.157.069.016-.033.163a.103.103 0 0 1-.044.07.098.098 0 0 1-.042.013.162.162 0 0 1-.054-.004.132.132 0 0 1-.08-.047.097.097 0 0 1-.017-.082l.033-.166zm-.28-.056l.07.013-.017.105.084.016.017-.105.07.013-.044.265-.07-.013.019-.109-.085-.016-.018.109-.07-.013.045-.265zm-.134.068a.035.035 0 0 0-.01-.028.047.047 0 0 0-.029-.014c-.019-.003-.033.004-.042.018a.097.097 0 0 0-.01.027.234.234 0 0 0-.007.039c-.006.056.007.087.038.09h.007c.014 0 .024-.003.03-.008a.046.046 0 0 0 .014-.025l.073.008a.084.084 0 0 1-.032.06.098.098 0 0 1-.038.016.148.148 0 0 1-.05.002.21.21 0 0 1-.04-.008.099.099 0 0 1-.068-.064.173.173 0 0 1-.008-.072.279.279 0 0 1 .013-.068.095.095 0 0 1 .028-.041.107.107 0 0 1 .041-.023.137.137 0 0 1 .053-.004l.012.002.015.003a.066.066 0 0 1 .024.007.106.106 0 0 1 .036.021c.01.01.016.02.02.031l.004.018a.08.08 0 0 1 0 .02v.001l-.074-.008zm-.388-.126l.085.006-.022.268-.085-.006.022-.268zm-.22.3l.103.004-.003.102-.103-.004.003-.102zm.012-.394l.06.004.039.102-.046-.003-.025-.054-.027.05-.044-.003.043-.096zm-.035.215a.33.33 0 0 0 .002.036.117.117 0 0 0 .009.027c.008.018.023.027.044.028l.003-.001a.046.046 0 0 0 .023-.005.05.05 0 0 0 .018-.017.123.123 0 0 0 .016-.063c.002-.06-.016-.09-.054-.09l-.01-.001a.09.09 0 0 1-.008.001.029.029 0 0 0-.01.006.041.041 0 0 0-.019.019.103.103 0 0 0-.01.027l-.002.016-.002.017zm-.074.001a.165.165 0 0 1 .035-.102c.02-.026.055-.039.103-.037a.147.147 0 0 1 .063.016.122.122 0 0 1 .059.084.213.213 0 0 1-.006.099.142.142 0 0 1-.025.043.105.105 0 0 1-.042.03.137.137 0 0 1-.057.008.15.15 0 0 1-.06-.013.117.117 0 0 1-.063-.076l-.005-.025a.156.156 0 0 1-.002-.027zm-.268-.143h.07v.107h.086v-.107h.07v.27h-.07v-.111h-.086v.11h-.07v-.269zm-.367.032c0-.025.004-.048.014-.069.01-.02.02-.031.033-.032.009 0 .02.003.034.01l.03.013h.002c.002 0 .004-.001.006-.004a.087.087 0 0 0 .005-.022l.028-.002a.193.193 0 0 1-.016.069.08.08 0 0 1-.015.023.048.048 0 0 1-.008.005.025.025 0 0 1-.009.002l-.01-.002-.011-.004-.022-.01-.01-.004-.008-.003c-.005 0-.009.003-.011.008l-.005.02-.027.002zm.148.141l-.057-.11h-.002l-.048.113.107-.003zm-.117-.161l.085-.004.109.265-.078.003-.02-.052-.102.004-.014.053-.07.003.09-.272zm-.296.155l-.1-.118.089-.01.057.078.043-.09.08-.008-.077.136.108.13-.089.01-.064-.089-.046.102-.082.009.081-.15zm-.29.08l-.074-.105h-.002l-.03.116.106-.01zm-.133-.151l.085-.013.134.251-.078.012-.024-.05-.101.016-.01.054-.07.01.064-.28zm-.284-.021l.046.088-.04.018-.077-.073.07-.033zm-.006.222a.329.329 0 0 0 .01.034.11.11 0 0 0 .015.024c.011.015.028.02.048.016l.003-.002a.047.047 0 0 0 .021-.01.052.052 0 0 0 .014-.022.125.125 0 0 0 .001-.065c-.011-.058-.036-.083-.073-.074l-.01.002a.073.073 0 0 1-.007.003.03.03 0 0 0-.009.008.042.042 0 0 0-.013.023.105.105 0 0 0-.004.03l.001.015.003.018zm-.072.02a.168.168 0 0 1 .01-.108c.015-.031.046-.052.093-.063a.146.146 0 0 1 .064 0 .11.11 0 0 1 .055.034c.008.009.015.02.021.032a.21.21 0 0 1 .017.098.146.146 0 0 1-.015.048.11.11 0 0 1-.034.04.14.14 0 0 1-.053.022.148.148 0 0 1-.061.003.107.107 0 0 1-.08-.058l-.01-.023a.154.154 0 0 1-.007-.025zm-.288-.07l.069-.017.022.104.083-.02-.022-.104.068-.017.057.262-.068.017-.024-.108-.083.02.023.108-.068.017-.057-.262zm-.219.16l.067-.022c-.009-.032-.026-.05-.05-.055a.118.118 0 0 0-.04-.002.282.282 0 0 0-.048.012c-.045.015-.074.04-.087.074a.161.161 0 0 0-.002.104.17.17 0 0 0 .015.036.119.119 0 0 0 .075.06.124.124 0 0 0 .07-.003.37.37 0 0 0 .053-.022.972.972 0 0 0 .066-.033l-.04-.137-.116.038.014.05.049-.016.013.046a.144.144 0 0 1-.017.01l-.016.006a.071.071 0 0 1-.042.003.067.067 0 0 1-.039-.028.09.09 0 0 1-.013-.03.166.166 0 0 1-.007-.035c0-.01 0-.021.002-.031a.054.054 0 0 1 .012-.027.05.05 0 0 1 .024-.015.13.13 0 0 1 .018-.005h.015c.011.002.02.01.024.022zm-.473.1l.092-.037.147.155v-.002l-.067-.185.059-.024.09.25-.09.038-.15-.16.07.192-.06.025-.091-.251zm-.234.028l.054-.031.06.032-.042.024-.035-.015-.011.042-.04.023.014-.075zm.065.204l-.006-.016-.005-.015a.105.105 0 0 1-.003-.03c0-.009.002-.018.008-.025a.03.03 0 0 1 .007-.01 51.25 51.25 0 0 0 .015-.01c.034-.018.063 0 .088.053a.124.124 0 0 1 .013.064.054.054 0 0 1-.008.024.049.049 0 0 1-.019.016l-.002.002c-.019.01-.036.009-.05-.002a.106.106 0 0 1-.032-.038.31.31 0 0 1-.006-.013zm-.065.038a.148.148 0 0 0 .013.023l.015.02a.108.108 0 0 0 .09.035.15.15 0 0 0 .059-.018.146.146 0 0 0 .046-.036.114.114 0 0 0 .024-.047.148.148 0 0 0-.012-.102.204.204 0 0 0-.023-.039.126.126 0 0 0-.028-.026.106.106 0 0 0-.061-.019.148.148 0 0 0-.062.017c-.043.023-.069.051-.075.085a.168.168 0 0 0 .014.107zm-.12.007a.032.032 0 0 0-.022-.018.046.046 0 0 0-.032.006c-.017.01-.025.023-.025.04 0 .008.002.018.005.029a.231.231 0 0 0 .015.036c.025.05.052.068.08.052l.005-.004c.012-.008.019-.016.021-.024a.048.048 0 0 0-.002-.03l.065-.036a.088.088 0 0 1-.018.104.215.215 0 0 1-.077.049.095.095 0 0 1-.09-.013.16.16 0 0 1-.046-.055.275.275 0 0 1-.024-.063.101.101 0 0 1 0-.051.118.118 0 0 1 .023-.044.145.145 0 0 1 .042-.034l.01-.006a.141.141 0 0 1 .015-.006.066.066 0 0 1 .024-.008.102.102 0 0 1 .04-.005.069.069 0 0 1 .033.014l.013.013c.004.004.007.01.01.015l.001.002-.065.037zm4.064-.046l.17.052.008.316.184-.257.174.053-.008.026-.038-.011a.032.032 0 0 0-.02-.001c-.005.002-.009.008-.011.016l-.1.324a.03.03 0 0 0 .001.019c.005.006.012.01.021.014l.034.01-.008.026-.215-.066.008-.026.04.013a.024.024 0 0 0 .02-.001c.005-.003.008-.008.01-.016l.107-.347-.257.356-.025-.008-.011-.441-.095.31a.062.062 0 0 0 .003.048.087.087 0 0 0 .043.036l-.008.026-.157-.048.008-.026a.07.07 0 0 0 .052-.007.07.07 0 0 0 .031-.042l.084-.274c.004-.011.004-.02.001-.025-.003-.005-.01-.01-.021-.013l-.033-.01.008-.026zm-.35.036l.04.179-.138-.025.099-.154zm.068-.102l-.033-.006-.223.346a.1.1 0 0 1-.033.032.043.043 0 0 1-.03.005l-.009-.002-.004.027.165.03.005-.028-.014-.002a.058.058 0 0 1-.037-.02.04.04 0 0 1-.008-.033.102.102 0 0 1 .015-.032l.023-.035.162.029.02.087a.043.043 0 0 1 0 .016c0 .005-.004.01-.01.012a.068.068 0 0 1-.032 0l-.02-.004-.004.027.204.036.005-.027-.016-.003a.038.038 0 0 1-.02-.01.058.058 0 0 1-.012-.025l-.094-.42zm-.782-.08l.137.01.218.32.015-.206a.068.068 0 0 0-.014-.05.064.064 0 0 0-.048-.024l.002-.028.16.012-.001.027c-.023 0-.04.007-.05.017-.01.01-.016.026-.018.048l-.024.345-.034-.003-.248-.368-.017.242c-.002.027.003.048.015.062a.063.063 0 0 0 .046.023h.007l-.002.028-.178-.013.002-.027h.012a.056.056 0 0 0 .045-.017.08.08 0 0 0 .022-.053l.02-.286a.061.061 0 0 0-.049-.03h-.02l.002-.028zm-.656.022l.386-.014.016.168H7.36a.39.39 0 0 0-.028-.082.105.105 0 0 0-.036-.042.077.077 0 0 0-.044-.011.03.03 0 0 0-.02.006.028.028 0 0 0-.005.016l.012.343.001.009a.02.02 0 0 0 .005.007c.005.004.01.006.016.006l.05-.002v.027l-.235.009-.001-.028.047-.002a.023.023 0 0 0 .017-.006.022.022 0 0 0 .006-.017l-.012-.34a.024.024 0 0 0-.007-.018.026.026 0 0 0-.02-.005c-.051.002-.084.05-.099.143l-.026.001.004-.168zm-.22.519a.051.051 0 0 1 .038.01.05.05 0 0 1 .021.035.054.054 0 0 1-.01.04.052.052 0 0 1-.074.01.052.052 0 0 1-.01-.074.051.051 0 0 1 .034-.021zm-.152-.632l.088-.012.07.104-.01.001-.097-.052-.078.077-.011.001.038-.119zm-.142.182l.004.028.035-.005c.012-.002.02-.001.026.002a.018.018 0 0 1 .009.014l.047.338a.025.025 0 0 1-.004.02.031.031 0 0 1-.02.009l-.04.005.005.028.397-.056-.017-.168-.026.004a.174.174 0 0 1-.029.11.12.12 0 0 1-.083.048l-.053.007a.051.051 0 0 1-.028-.003c-.004-.002-.007-.007-.008-.014l-.023-.162.017-.002c.026-.004.047 0 .062.012a.076.076 0 0 1 .02.027c.006.011.01.025.012.041l.027-.003-.029-.205-.027.004a.103.103 0 0 1-.001.039.084.084 0 0 1-.013.03c-.01.015-.028.024-.051.027l-.02.003-.022-.152c0-.007 0-.012.004-.016.004-.005.01-.007.02-.009l.06-.008a.127.127 0 0 1 .06.004.09.09 0 0 1 .041.03.25.25 0 0 1 .034.075l.026-.003-.03-.152-.382.053zm-.303.073l.221-.051.006.027-.04.009a.029.029 0 0 0-.017.01c-.003.004-.004.009-.002.016l.077.334c.002.008.005.013.01.015a.036.036 0 0 0 .024.001l.035-.008.007.027-.221.051-.006-.027.033-.008a.076.076 0 0 0 .015-.004.021.021 0 0 0 .008-.007c.004-.005.005-.011.003-.019l-.076-.33c-.002-.009-.005-.014-.01-.017-.006-.003-.013-.003-.022-.001l-.039.009-.006-.027zm-.505.156l.207-.063.008.026-.022.007a.073.073 0 0 0-.03.014c-.004.004-.005.01-.004.014a.074.074 0 0 0 .014.021l.184.224.02-.245a.11.11 0 0 0 0-.026.089.089 0 0 0-.003-.018.036.036 0 0 0-.019-.023c-.009-.005-.02-.004-.035 0l-.02.006-.007-.027.163-.05.008.027-.012.004a.044.044 0 0 0-.024.019.108.108 0 0 0-.013.046l-.035.4-.034.011-.27-.327a.056.056 0 0 0-.025-.02.064.064 0 0 0-.034.004l-.009.002-.008-.026z" fill="#FFF100"/></g></svg>